<svg xmlns="http://www.w3.org/2000/svg" enable-background="new 0 0 24 24" viewBox="0 0 24 24"><path fill="#110638" d="M12.185,24C5.604,24,0.25,18.617,0.25,12S5.604,0,12.185,0c3.048,0,5.817,1.087,8.009,3.145c0.101,0.094,0.157,0.224,0.158,0.361c0.001,0.137-0.054,0.268-0.152,0.363l-3.112,3.009c-0.195,0.188-0.503,0.187-0.696,0c-1.743-1.694-4.314-2.117-6.708-1.105C7.708,6.608,5.598,8.682,5.598,12c0,3.729,2.955,6.762,6.587,6.762c3.706,0,5.361-2.335,5.861-3.958h-5.861c-0.276,0-0.5-0.224-0.5-0.5V10.35c0-0.276,0.224-0.5,0.5-0.5H23.07c0.242,0,0.449,0.173,0.492,0.412c0.098,0.543,0.188,1.163,0.188,2.008C23.75,19.176,18.994,24,12.185,24z M12.185,1C6.155,1,1.25,5.935,1.25,12s4.905,11,10.935,11c6.221,0,10.565-4.413,10.565-10.73c0-0.55-0.04-0.988-0.104-1.419h-9.962v2.955h5.991c0.146,0,0.285,0.064,0.38,0.175c0.096,0.111,0.137,0.258,0.114,0.403c-0.294,1.86-2.133,5.379-6.985,5.379c-4.184,0-7.587-3.482-7.587-7.762c0-3.185,1.799-5.923,4.695-7.148c2.612-1.104,5.415-0.722,7.435,0.982l2.391-2.311C17.181,1.871,14.795,1,12.185,1z"/></svg>